v -1.0 -1.0 -1.0
v -1.0 1.0 -1.0
v 1.0 1.0 -1.0
v 1.0 -1.0 -1.0
v -1.0 -1.0 1.0
v -1.0 1.0 1.0
v 1.0 1.0 1.0
v 1.0 -1.0 1.0

vn 1.0 0.0 0.0
vn -1.0 0.0 0.0
vn 0.0 1.0 0.0
vn 0.0 -1.0 0.0
vn 0.0 0.0 1.0
vn 0.0 0.0 -1.0

vt 0.25 1.00
vt 0.50 1.00
vt 0 0.75
vt 0.25 0.75
vt 0.50 0.75
vt 0.75 0.75
vt 0 0.50
vt 0.25 0.50
vt 0.50 0.50
vt 0.75 0.50
vt 0.25 0.25
vt 0.50 0.25
vt 0.25 0
vt 0.50 0

# Define material for the following faces
usemtl cube_texture

# Faces v/vt/vn
#   3-------2
#   | -     |
#   |   #   |  Each face = 2 triangles (ccw)
#   |     - |            = 1-2-3 + 1-3-4
#   4-------1

# Face 1: cghd = cgh + chd
f 3/10/1 7/6/1 8/5/1
f 3/10/1 8/5/1 4/9/1

# Face 2: aefb = aef + afb
f 1/8/2 5/4/2 6/3/2
f 1/8/2 6/3/2 2/7/2

# Face 3: gcbf = gcb + gbf
f 7/14/3 3/12/3 2/11/3
f 7/14/3 2/11/3 6/13/3

# Face 4: dhea = dhe + dea
f 4/9/4 8/5/4 5/4/4
f 4/9/4 5/4/4 1/8/4

# Face 5: hgfe = hgf + hfe
f 8/5/5 7/2/5 6/1/5
f 8/5/5 6/1/5 5/4/5

# Face 6: cdab = cda + cab
f 3/12/6 4/9/6 1/8/6
f 3/12/6 1/8/6 2/11/6
